<?xml version="1.0" standalone="no"?>
<!DOCTYPE svg PUBLIC "-//W3C//DTD SVG 20010904//EN"
 "http://www.w3.org/TR/2001/REC-SVG-20010904/DTD/svg10.dtd">
<svg version="1.0" xmlns="http://www.w3.org/2000/svg"
 width="225.000000pt" height="225.000000pt" viewBox="0 0 225.000000 225.000000"
 preserveAspectRatio="xMidYMid meet">ap
<metadata>
Created by potrace 1.16, written by Peter Selinger 2001-2019
</metadata>
<g transform="translate(0.000000,225.000000) scale(0.100000,-0.100000)"
fill="#000000" stroke="none">
<path d="M525 1650 c-110 -16 -185 -67 -223 -149 -52 -113 -26 -252 59 -308
l38 -25 -47 -32 c-84 -56 -118 -132 -109 -246 5 -79 37 -150 90 -203 83 -83
158 -97 515 -97 l262 0 0 535 0 535 -267 -1 c-148 -1 -290 -5 -318 -9z m375
-295 l0 -115 -155 0 c-211 0 -255 20 -255 118 0 98 30 111 248 112 l162 0 0
-115z m0 -441 l0 -146 -167 4 c-188 5 -220 14 -250 71 -22 41 -22 126 -1 159
32 49 68 58 251 58 l167 0 0 -146z"/>
<path d="M1140 1126 l0 -536 263 0 c144 0 293 5 330 10 87 13 154 47 205 105
113 128 98 348 -28 427 l-48 30 48 46 c53 51 70 95 70 176 0 78 -20 126 -75
183 -79 81 -102 86 -462 91 l-303 4 0 -536z m596 313 c31 -32 42 -100 22 -139
-26 -50 -67 -60 -245 -60 l-163 0 0 116 0 115 180 -3 c179 -3 180 -3 206 -29z
m-22 -393 c52 -22 76 -60 76 -121 0 -38 -6 -61 -23 -86 -37 -56 -63 -63 -249
-67 l-168 -4 0 146 0 146 165 0 c118 0 175 -4 199 -14z"/>
</g>
</svg>
